<?xml version="1.0" encoding="UTF-8"?><svg xmlns="http://www.w3.org/2000/svg" viewBox="0 0 380.6 260.6"><defs><style>.d{fill:#fff;stroke:#fff;stroke-miterlimit:10;}</style></defs><g id="a"/><g id="b"><g id="c"><g><g><path class="d" d="M374.14,36.5l-27.06-25.6c-7.07-6.68-16.42-10.39-26.15-10.39h-64.05c-12.18,0-23.62,5.8-30.77,15.67l-10.78,14.85-76.25,99.27,51.23,67.28,91.06-119.13c4.45-5.8,11.35-9.21,18.66-9.21h61.08c17.13,0,25.49-20.98,13.03-32.75Zm-19.96,30h-63.74l19.85-27.44c3.93-5.44,9.02-9.46,14.66-12.1,13.61-6.38,30.47-4.4,42.27,6.79,12.48,11.77,4.12,32.75-13.03,32.75Z"/><path class="d" d="M129.73,142.46l-31.41,40.89c-3.87,5.04-9.86,7.99-16.22,7.99H19.5c-17.13,0-25.49,20.98-13.03,32.75l27.06,25.6c7.07,6.68,16.42,10.39,26.15,10.39H123.72c12.18,0,23.62-5.8,30.77-15.67l9.84-12.87c10.07-13.17,10.01-31.46-.14-44.57l-34.47-44.52Zm-59.41,79.08c-3.93,5.44-9.02,9.46-14.66,12.1-13.61,6.38-30.47,4.4-42.27-6.79-12.48-11.77-4.12-32.75,13.03-32.75h63.74l-19.85,27.44Z"/></g><path class="d" d="M361.1,191.35h-61.09c-7.31,0-14.2-3.4-18.65-9.19L165.28,31.02l-10.78-14.85c-7.15-9.87-18.59-15.67-30.77-15.67H59.68c-9.73,0-19.08,3.71-26.15,10.39L6.46,36.5c-12.46,11.77-4.1,32.75,13.03,32.75h61.08c7.31,0,14.21,3.4,18.66,9.21l126.86,165.97c7.15,9.87,18.59,15.67,30.77,15.67h64.05c9.73,0,19.08-3.71,26.15-10.39l27.06-25.6c12.46-11.77,4.1-32.75-13.03-32.75ZM26.43,66.5c-17.16,0-25.52-20.98-13.03-32.75,11.8-11.19,28.65-13.17,42.27-6.79,5.64,2.64,10.72,6.65,14.66,12.1l19.85,27.44H26.43ZM367.21,226.85c-11.8,11.19-28.65,13.17-42.27,6.79-5.64-2.64-10.72-6.65-14.66-12.1l-19.85-27.44h63.74c17.16,0,25.52,20.98,13.03,32.75Z"/></g></g></g></svg>